M48
;Layer_Color=9474304
;FILE_FORMAT=2:5
INCH,LZ
;TYPE=PLATED
T1F00S00C0.02756
T2F00S00C0.03937
T3F00S00C0.04331
T4F00S00C0.04724
T5F00S00C0.12598
T6F00S00C0.14173
%
T01
X0260819Y0332076
X026565Y033337
X027048Y0334664
X0280701
X0285531Y033337
X0290362Y0332076
T02
X0248366Y026685
X0255157Y0261811
X0262933Y0257992
X0271299Y0256142
X0279882
X0288248Y0257992
X0296024Y0261811
X0302815Y026685
X0308327Y0273425
X0242854
Y0317126
X0308327
T03
X0329646Y0250276
X0339646
Y0260276
Y0270276
Y0280276
Y0290276
X0329646
Y0280276
Y0270276
Y0260276
Y0300276
Y0310276
X0339646
Y0300276
Y0320276
X0329646
Y0330276
Y0340276
X0339646
Y0330276
T04
X0265748Y0267717
X0285433
T05
X0364173Y0246063
X0236221
Y0344488
X0364173
T06
X0257283Y0295276
X0293898
M30
