%FSLAX25Y25*%
%MOIN*%
G70*
G01*
G75*
G04 Layer_Color=65535*
%ADD10R,0.04331X0.05512*%
%ADD11R,0.05512X0.04331*%
%ADD12R,0.05906X0.05000*%
%ADD13R,0.03937X0.01575*%
%ADD14R,0.04724X0.01181*%
%ADD15R,0.01181X0.04724*%
%ADD16R,0.04921X0.01181*%
%ADD17C,0.01181*%
%ADD18C,0.05906*%
%ADD19C,0.01969*%
%ADD20C,0.03937*%
%ADD21C,0.04331*%
%ADD22C,0.11811*%
%ADD23C,0.06000*%
%ADD24C,0.06693*%
%ADD25C,0.05906*%
%ADD26C,0.06299*%
%ADD27O,0.06299X0.06535*%
%ADD28O,0.06535X0.06299*%
%ADD29C,0.03937*%
%ADD30C,0.03543*%
%ADD31C,0.00787*%
%ADD32C,0.01000*%
D17*
X531890Y244685D02*
Y246654D01*
Y255315D02*
Y257283D01*
X515354Y255315D02*
Y257283D01*
Y244685D02*
Y246654D01*
Y257283D02*
X531890D01*
X515354Y244685D02*
X531890D01*
X567323Y309134D02*
X600394D01*
X535433D02*
X552362D01*
X535433Y261732D02*
X552362D01*
X567323Y261811D02*
X600394D01*
X535433Y261732D02*
Y285433D01*
Y309134D01*
X600394Y261811D02*
Y309134D01*
Y261732D02*
Y261811D01*
X370406Y348095D02*
Y346783D01*
X369094D01*
X371718D01*
X370406D01*
Y342847D01*
X371718Y341535D01*
X376966D02*
X379590D01*
X380902Y342847D01*
Y345471D01*
X379590Y346783D01*
X376966D01*
X375654Y345471D01*
Y342847D01*
X376966Y341535D01*
X383525Y346783D02*
Y341535D01*
Y344159D01*
X384837Y345471D01*
X386149Y346783D01*
X387461D01*
X392709Y348095D02*
Y346783D01*
X391397D01*
X394021D01*
X392709D01*
Y342847D01*
X394021Y341535D01*
X397957Y346783D02*
Y341535D01*
Y344159D01*
X399269Y345471D01*
X400580Y346783D01*
X401892D01*
X407140Y341535D02*
X409764D01*
X411076Y342847D01*
Y345471D01*
X409764Y346783D01*
X407140D01*
X405828Y345471D01*
Y342847D01*
X407140Y341535D01*
X413699D02*
Y346783D01*
X417635D01*
X418947Y345471D01*
Y341535D01*
X421571D02*
X424195D01*
X422883D01*
Y346783D01*
X421571D01*
X428131Y341535D02*
Y349407D01*
Y344159D02*
X432066Y346783D01*
X428131Y344159D02*
X432066Y341535D01*
X436002D02*
Y342847D01*
X437314D01*
Y341535D01*
X436002D01*
X447809Y349407D02*
Y341535D01*
X443874D01*
X442562Y342847D01*
Y345471D01*
X443874Y346783D01*
X447809D01*
X454369Y341535D02*
X451745D01*
X450433Y342847D01*
Y345471D01*
X451745Y346783D01*
X454369D01*
X455681Y345471D01*
Y344159D01*
X450433D01*
X488189Y495076D02*
Y487205D01*
X492125D01*
X493437Y488517D01*
Y493764D01*
X492125Y495076D01*
X488189D01*
X496061Y492452D02*
Y487205D01*
Y489828D01*
X497372Y491141D01*
X498684Y492452D01*
X499996D01*
X505244D02*
X507868D01*
X509180Y491141D01*
Y487205D01*
X505244D01*
X503932Y488517D01*
X505244Y489828D01*
X509180D01*
X514427Y484581D02*
X515739D01*
X517051Y485893D01*
Y492452D01*
X513115D01*
X511803Y491141D01*
Y488517D01*
X513115Y487205D01*
X517051D01*
X520987D02*
X523611D01*
X524923Y488517D01*
Y491141D01*
X523611Y492452D01*
X520987D01*
X519675Y491141D01*
Y488517D01*
X520987Y487205D01*
X527546D02*
Y492452D01*
X531482D01*
X532794Y491141D01*
Y487205D01*
X535418Y495076D02*
Y489828D01*
X538042Y487205D01*
X540665Y489828D01*
Y495076D01*
X543289Y487205D02*
X545913D01*
X544601D01*
Y492452D01*
X543289D01*
X555097Y495076D02*
Y487205D01*
X551161D01*
X549849Y488517D01*
Y491141D01*
X551161Y492452D01*
X555097D01*
X561656Y487205D02*
X559032D01*
X557720Y488517D01*
Y491141D01*
X559032Y492452D01*
X561656D01*
X562968Y491141D01*
Y489828D01*
X557720D01*
X566904Y487205D02*
X569528D01*
X570840Y488517D01*
Y491141D01*
X569528Y492452D01*
X566904D01*
X565592Y491141D01*
Y488517D01*
X566904Y487205D01*
X493437Y478016D02*
X492125Y479328D01*
X489501D01*
X488189Y478016D01*
Y472769D01*
X489501Y471457D01*
X492125D01*
X493437Y472769D01*
X497372Y476704D02*
X499996D01*
X501308Y475392D01*
Y471457D01*
X497372D01*
X496061Y472769D01*
X497372Y474081D01*
X501308D01*
X503932Y471457D02*
Y476704D01*
X505244D01*
X506556Y475392D01*
Y471457D01*
Y475392D01*
X507868Y476704D01*
X509180Y475392D01*
Y471457D01*
X517051Y478016D02*
X515739Y479328D01*
X513115D01*
X511803Y478016D01*
Y472769D01*
X513115Y471457D01*
X515739D01*
X517051Y472769D01*
X520987Y471457D02*
X523611D01*
X524923Y472769D01*
Y475392D01*
X523611Y476704D01*
X520987D01*
X519675Y475392D01*
Y472769D01*
X520987Y471457D01*
X527546D02*
Y476704D01*
X531482D01*
X532794Y475392D01*
Y471457D01*
X536730Y478016D02*
Y476704D01*
X535418D01*
X538042D01*
X536730D01*
Y472769D01*
X538042Y471457D01*
X541977Y476704D02*
Y471457D01*
Y474081D01*
X543289Y475392D01*
X544601Y476704D01*
X545913D01*
X551161Y471457D02*
X553785D01*
X555097Y472769D01*
Y475392D01*
X553785Y476704D01*
X551161D01*
X549849Y475392D01*
Y472769D01*
X551161Y471457D01*
X557720D02*
X560344D01*
X559032D01*
Y479328D01*
X557720D01*
X564280Y471457D02*
X566904D01*
X565592D01*
Y479328D01*
X564280D01*
X574775Y471457D02*
X572151D01*
X570840Y472769D01*
Y475392D01*
X572151Y476704D01*
X574775D01*
X576087Y475392D01*
Y474081D01*
X570840D01*
X578711Y476704D02*
Y471457D01*
Y474081D01*
X580023Y475392D01*
X581335Y476704D01*
X582647D01*
D31*
X385827Y277559D02*
G03*
X385827Y277559I-9843J0D01*
G01*
X465413Y477677D02*
G03*
X465413Y494764I0J8543D01*
G01*
X440098D02*
G03*
X440098Y477677I0J-8543D01*
G01*
X329646Y335591D02*
G03*
X339646Y335591I5000J0D01*
G01*
X530512Y285433D02*
G03*
X530512Y285433I-24606J0D01*
G01*
X228346Y216535D02*
G03*
X228346Y216535I-11811J0D01*
G01*
Y570866D02*
G03*
X228346Y570866I-11811J0D01*
G01*
X582677D02*
G03*
X582677Y570866I-11811J0D01*
G01*
Y216535D02*
G03*
X582677Y216535I-11811J0D01*
G01*
X362598Y505905D02*
X363386D01*
Y502756D02*
Y505905D01*
Y498032D02*
Y502756D01*
X358661Y498032D02*
X363386D01*
X349213D02*
X358661D01*
X349213D02*
Y504331D01*
Y505905D01*
X361417D01*
X362598D01*
X371457Y496063D02*
X372244D01*
Y492913D02*
Y496063D01*
Y488189D02*
Y492913D01*
X367520Y488189D02*
X372244D01*
X358071D02*
X367520D01*
X358071D02*
Y494488D01*
Y496063D01*
X370276D01*
X371457D01*
X351181Y478346D02*
X351969D01*
X351181D02*
Y481496D01*
Y486221D01*
X355906D01*
X365354D01*
Y479921D02*
Y486221D01*
Y478346D02*
Y479921D01*
X353150Y478346D02*
X365354D01*
X351969D02*
X353150D01*
X360039Y468504D02*
X360827D01*
X360039D02*
Y471654D01*
Y476378D01*
X364764D01*
X374213D01*
Y470079D02*
Y476378D01*
Y468504D02*
Y470079D01*
X362008Y468504D02*
X374213D01*
X360827D02*
X362008D01*
X389173Y476378D02*
X389961D01*
Y473228D02*
Y476378D01*
Y468504D02*
Y473228D01*
X385236Y468504D02*
X389961D01*
X375787D02*
X385236D01*
X375787D02*
Y474803D01*
Y476378D01*
X387992D01*
X389173D01*
X380315Y486221D02*
X381102D01*
Y483071D02*
Y486221D01*
Y478346D02*
Y483071D01*
X376378Y478346D02*
X381102D01*
X366929D02*
X376378D01*
X366929D02*
Y484646D01*
Y486221D01*
X379134D01*
X380315D01*
X342323Y488189D02*
X343110D01*
X342323D02*
Y491339D01*
Y496063D01*
X347047D01*
X356496D01*
Y489764D02*
Y496063D01*
Y488189D02*
Y489764D01*
X344291Y488189D02*
X356496D01*
X343110D02*
X344291D01*
X333465Y498032D02*
X334252D01*
X333465D02*
Y501181D01*
Y505905D01*
X338189D01*
X347638D01*
Y499606D02*
Y505905D01*
Y498032D02*
Y499606D01*
X335433Y498032D02*
X347638D01*
X334252D02*
X335433D01*
X367323Y266535D02*
Y269685D01*
X365748Y268110D02*
X368898D01*
X357283Y286811D02*
Y287598D01*
X360433D01*
X365158D01*
Y282874D02*
Y287598D01*
Y273425D02*
Y282874D01*
X358858Y273425D02*
X365158D01*
X357283D02*
X358858D01*
X357283D02*
Y285630D01*
Y286811D01*
X365158Y258465D02*
Y259646D01*
Y271850D01*
X363583D02*
X365158D01*
X357283D02*
X363583D01*
X357283Y262402D02*
Y271850D01*
Y257677D02*
Y262402D01*
Y257677D02*
X362008D01*
X365158D01*
Y258465D01*
X486024Y416339D02*
X486811D01*
X486024D02*
Y419488D01*
Y424213D01*
X490748D01*
X500197D01*
Y417913D02*
Y424213D01*
Y416339D02*
Y417913D01*
X487992Y416339D02*
X500197D01*
X486811D02*
X487992D01*
X543504Y436024D02*
X544685D01*
X531299D02*
X543504D01*
X531299Y434449D02*
Y436024D01*
Y428150D02*
Y434449D01*
Y428150D02*
X540748D01*
X545472D01*
Y432874D01*
Y436024D01*
X544685D02*
X545472D01*
X544685Y426181D02*
X545472D01*
Y423032D02*
Y426181D01*
Y418307D02*
Y423032D01*
X540748Y418307D02*
X545472D01*
X531299D02*
X540748D01*
X531299D02*
Y424606D01*
Y426181D01*
X543504D01*
X544685D01*
X532480Y395669D02*
Y415354D01*
X530512D02*
X546260D01*
X530512Y395669D02*
X546260D01*
X530512D02*
Y415354D01*
X546260Y395669D02*
Y415354D01*
X461614Y475787D02*
Y476575D01*
X464764D01*
X469488D01*
Y471850D02*
Y476575D01*
Y462402D02*
Y471850D01*
X463189Y462402D02*
X469488D01*
X461614D02*
X463189D01*
X461614D02*
Y474606D01*
Y475787D01*
X455709Y534449D02*
X475394D01*
X455709Y514764D02*
Y534449D01*
Y514764D02*
X495079D01*
Y534449D01*
X475394D02*
X495079D01*
X508071Y507874D02*
X509252D01*
X495866D02*
X508071D01*
X495866Y506299D02*
Y507874D01*
Y500000D02*
Y506299D01*
Y500000D02*
X505315D01*
X510039D01*
Y504724D01*
Y507874D01*
X509252D02*
X510039D01*
X466929Y505905D02*
X467717D01*
Y502756D02*
Y505905D01*
Y498032D02*
Y502756D01*
X462992Y498032D02*
X467717D01*
X453543D02*
X462992D01*
X453543D02*
Y504331D01*
Y505905D01*
X465748D01*
X466929D01*
X437795Y498032D02*
X438583D01*
X437795D02*
Y501181D01*
Y505905D01*
X442520D01*
X451968D01*
Y499606D02*
Y505905D01*
Y498032D02*
Y499606D01*
X439764Y498032D02*
X451968D01*
X438583D02*
X439764D01*
X440098Y477677D02*
X465413D01*
X440098Y494764D02*
X465413D01*
X383858Y535630D02*
Y536811D01*
Y523425D02*
Y535630D01*
Y523425D02*
X385433D01*
X391732D01*
Y532874D01*
Y537598D01*
X387008D02*
X391732D01*
X383858D02*
X387008D01*
X383858Y536811D02*
Y537598D01*
X339646Y335591D02*
X344646D01*
Y330591D02*
Y335591D01*
Y325590D02*
Y330591D01*
X324646Y335591D02*
X329646D01*
X344646Y215591D02*
Y325590D01*
X324646Y215591D02*
X344646D01*
X324646D02*
Y335591D01*
X512795Y213189D02*
Y214370D01*
Y226575D01*
X511221D02*
X512795D01*
X504921D02*
X511221D01*
X504921Y217126D02*
Y226575D01*
Y212402D02*
Y217126D01*
Y212402D02*
X509646D01*
X512795D01*
Y213189D01*
X468957Y401654D02*
Y449272D01*
X416870D02*
X468957D01*
X416870Y397185D02*
Y449272D01*
Y397185D02*
X464488D01*
X468957Y401654D01*
X561024Y424213D02*
Y428150D01*
X559055D02*
X561024D01*
X557087D02*
X559055D01*
X557087D02*
Y439961D01*
X564961D01*
Y428150D02*
Y439961D01*
X561024Y428150D02*
X564961D01*
X561024Y439961D02*
Y443898D01*
X557087Y430118D02*
X564961D01*
X580709Y424213D02*
Y428150D01*
X578740D02*
X580709D01*
X576772D02*
X578740D01*
X576772D02*
Y439961D01*
X584646D01*
Y428150D02*
Y439961D01*
X580709Y428150D02*
X584646D01*
X580709Y439961D02*
Y443898D01*
X576772Y430118D02*
X584646D01*
X527953Y328740D02*
X528740D01*
Y325590D02*
Y328740D01*
Y320866D02*
Y325590D01*
X524016Y320866D02*
X528740D01*
X514567D02*
X524016D01*
X514567D02*
Y327165D01*
Y328740D01*
X526772D01*
X527953D01*
X484646Y376969D02*
X485433D01*
Y373819D02*
Y376969D01*
Y369094D02*
Y373819D01*
X480709Y369094D02*
X485433D01*
X471260D02*
X480709D01*
X471260D02*
Y375394D01*
Y376969D01*
X483465D01*
X484646D01*
X394094Y426181D02*
X394882D01*
Y423032D02*
Y426181D01*
Y418307D02*
Y423032D01*
X390158Y418307D02*
X394882D01*
X380709D02*
X390158D01*
X380709D02*
Y424606D01*
Y426181D01*
X392913D01*
X394094D01*
X484646Y386811D02*
X485433D01*
Y383661D02*
Y386811D01*
Y378937D02*
Y383661D01*
X480709Y378937D02*
X485433D01*
X471260D02*
X480709D01*
X471260D02*
Y385236D01*
Y386811D01*
X483465D01*
X484646D01*
X426181Y363976D02*
Y364764D01*
X423032Y363976D02*
X426181D01*
X418307D02*
X423032D01*
X418307D02*
Y368701D01*
Y378150D01*
X424606D01*
X426181D01*
Y365945D02*
Y378150D01*
Y364764D02*
Y365945D01*
X496063Y254921D02*
X500000D01*
X496063Y252953D02*
Y254921D01*
Y250984D02*
Y252953D01*
X484252Y250984D02*
X496063D01*
X484252D02*
Y258858D01*
X496063D01*
Y254921D02*
Y258858D01*
X480315Y254921D02*
X484252D01*
X494095Y250984D02*
Y258858D01*
X482283Y263779D02*
X486221D01*
X484252Y261811D02*
Y265748D01*
X496063Y293307D02*
Y297244D01*
X494095Y275590D02*
X498032D01*
X496063Y273622D02*
Y277559D01*
X542323Y353740D02*
Y354528D01*
X545472D01*
X550197D01*
Y349803D02*
Y354528D01*
Y340354D02*
Y349803D01*
X543898Y340354D02*
X550197D01*
X542323D02*
X543898D01*
X542323D02*
Y352559D01*
Y353740D01*
D32*
X515748Y371654D02*
G03*
X523622Y371654I3937J0D01*
G01*
X555709Y351535D02*
X585709D01*
X555709Y331535D02*
X585709D01*
Y351535D01*
X555709Y331535D02*
Y351535D01*
Y333661D02*
X585709D01*
X555709Y381063D02*
X585709D01*
X555709Y361063D02*
X585709D01*
Y381063D01*
X555709Y361063D02*
Y381063D01*
Y363189D02*
X585709D01*
X555709Y409606D02*
X585709D01*
X555709Y389606D02*
X585709D01*
Y409606D01*
X555709Y389606D02*
Y409606D01*
Y391732D02*
X585709D01*
X531339Y444350D02*
X533839Y441890D01*
X531339Y449350D02*
X533839Y451575D01*
X531339Y441890D02*
Y451575D01*
X551693D01*
Y441890D02*
Y451575D01*
X531339Y441890D02*
X551693D01*
X491653Y578406D02*
X551653D01*
X521654Y573622D02*
X525591D01*
Y578346D01*
X517717Y573622D02*
X521654D01*
X517717D02*
Y578346D01*
X491653Y543642D02*
X551653D01*
X491653D02*
X491732D01*
X491653D02*
Y578406D01*
X551653Y543642D02*
Y578406D01*
X466890Y578445D02*
X478228D01*
Y576024D02*
Y578445D01*
X466890Y543602D02*
X478228D01*
Y576024D01*
X368228Y578445D02*
X466890D01*
X418228Y573524D02*
Y578445D01*
X408228Y573524D02*
X418228D01*
X408228D02*
Y578445D01*
X368228Y543602D02*
X466890D01*
X368228D02*
Y578445D01*
X341929Y576772D02*
X351929D01*
X311929D02*
X341929D01*
X351929Y558898D02*
Y578898D01*
X311929Y558898D02*
Y578898D01*
X351929D01*
X311929Y558898D02*
X351929D01*
X341929Y548228D02*
X351929D01*
X311929D02*
X341929D01*
X351929Y530354D02*
Y550354D01*
X311929Y530354D02*
Y550354D01*
X351929D01*
X311929Y530354D02*
X351929D01*
X250905Y268406D02*
Y273327D01*
Y268406D02*
X260906D01*
Y273327D01*
X215905Y238484D02*
X284567D01*
X215905D02*
Y270905D01*
Y273327D01*
X284567D01*
X295905Y238484D02*
Y270905D01*
X284567Y238484D02*
X295905D01*
Y270905D02*
Y273327D01*
X284567D02*
X295905D01*
X250905Y307776D02*
Y312697D01*
Y307776D02*
X260906D01*
Y312697D01*
X215905Y277854D02*
X284567D01*
X215905D02*
Y310276D01*
Y312697D01*
X284567D01*
X295905Y277854D02*
Y310276D01*
X284567Y277854D02*
X295905D01*
Y310276D02*
Y312697D01*
X284567D02*
X295905D01*
X250905Y347146D02*
Y352067D01*
Y347146D02*
X260906D01*
Y352067D01*
X215905Y317224D02*
X284567D01*
X215905D02*
Y349646D01*
Y352067D01*
X284567D01*
X295905Y317224D02*
Y349646D01*
X284567Y317224D02*
X295905D01*
Y349646D02*
Y352067D01*
X284567D02*
X295905D01*
X250905Y386516D02*
Y391437D01*
Y386516D02*
X260906D01*
Y391437D01*
X215905Y356594D02*
X284567D01*
X215905D02*
Y389016D01*
Y391437D01*
X284567D01*
X295905Y356594D02*
Y389016D01*
X284567Y356594D02*
X295905D01*
Y389016D02*
Y391437D01*
X284567D02*
X295905D01*
X250905Y425886D02*
Y430807D01*
Y425886D02*
X260906D01*
Y430807D01*
X215905Y395965D02*
X284567D01*
X215905D02*
Y428386D01*
Y430807D01*
X284567D01*
X295905Y395965D02*
Y428386D01*
X284567Y395965D02*
X295905D01*
Y428386D02*
Y430807D01*
X284567D02*
X295905D01*
X250905Y465256D02*
Y470177D01*
Y465256D02*
X260906D01*
Y470177D01*
X215905Y435335D02*
X284567D01*
X215905D02*
Y467756D01*
Y470177D01*
X284567D01*
X295905Y435335D02*
Y467756D01*
X284567Y435335D02*
X295905D01*
Y467756D02*
Y470177D01*
X284567D02*
X295905D01*
X250905Y504626D02*
Y509547D01*
Y504626D02*
X260906D01*
Y509547D01*
X215905Y474705D02*
X284567D01*
X215905D02*
Y507126D01*
Y509547D01*
X284567D01*
X295905Y474705D02*
Y507126D01*
X284567Y474705D02*
X295905D01*
Y507126D02*
Y509547D01*
X284567D02*
X295905D01*
X250905Y543996D02*
Y548917D01*
Y543996D02*
X260906D01*
Y548917D01*
X215905Y514075D02*
X284567D01*
X215905D02*
Y546496D01*
Y548917D01*
X284567D01*
X295905Y514075D02*
Y546496D01*
X284567Y514075D02*
X295905D01*
Y546496D02*
Y548917D01*
X284567D02*
X295905D01*
X486732Y243799D02*
X498071D01*
Y241378D02*
Y243799D01*
X486732Y208957D02*
X498071D01*
Y241378D01*
X368071Y243799D02*
X486732D01*
X438071Y238878D02*
Y243799D01*
X428071Y238878D02*
X438071D01*
X428071D02*
Y243799D01*
X368071Y208957D02*
X486732D01*
X368071D02*
Y243799D01*
X509252Y371654D02*
X515748D01*
X523622D02*
X530118D01*
X509252Y331102D02*
X530118D01*
X509252D02*
Y371654D01*
X530118Y331102D02*
Y371654D01*
X307382Y447205D02*
Y458543D01*
X309803D01*
X342224Y447205D02*
Y458543D01*
X309803D02*
X342224D01*
X307382Y348543D02*
Y447205D01*
Y398543D02*
X312303D01*
Y388543D02*
Y398543D01*
X307382Y388543D02*
X312303D01*
X342224Y348543D02*
Y447205D01*
X307382Y348543D02*
X342224D01*
X466890Y325492D02*
X478228D01*
Y323071D02*
Y325492D01*
X466890Y290650D02*
X478228D01*
Y323071D01*
X368228Y325492D02*
X466890D01*
X418228Y320571D02*
Y325492D01*
X408228Y320571D02*
X418228D01*
X408228D02*
Y325492D01*
X368228Y290650D02*
X466890D01*
X368228D02*
Y325492D01*
X316929Y500000D02*
Y505998D01*
X319928D01*
X320928Y504998D01*
Y502999D01*
X319928Y501999D01*
X316929D01*
X318929D02*
X320928Y500000D01*
X322927D02*
X324926D01*
X323927D01*
Y505998D01*
X322927Y504998D01*
X330925Y500000D02*
Y505998D01*
X327926Y502999D01*
X331924D01*
X374016Y499016D02*
Y505014D01*
X377015D01*
X378014Y504014D01*
Y502015D01*
X377015Y501015D01*
X374016D01*
X376015D02*
X378014Y499016D01*
X380014D02*
X382013D01*
X381013D01*
Y505014D01*
X380014Y504014D01*
X385012D02*
X386012Y505014D01*
X388011D01*
X389011Y504014D01*
Y503015D01*
X388011Y502015D01*
X387012D01*
X388011D01*
X389011Y501015D01*
Y500015D01*
X388011Y499016D01*
X386012D01*
X385012Y500015D01*
X325787Y489173D02*
Y495171D01*
X328786D01*
X329786Y494172D01*
Y492172D01*
X328786Y491173D01*
X325787D01*
X327787D02*
X329786Y489173D01*
X331785D02*
X333785D01*
X332785D01*
Y495171D01*
X331785Y494172D01*
X340782Y489173D02*
X336784D01*
X340782Y493172D01*
Y494172D01*
X339783Y495171D01*
X337784D01*
X336784Y494172D01*
X381890Y489173D02*
Y495171D01*
X384889D01*
X385889Y494172D01*
Y492172D01*
X384889Y491173D01*
X381890D01*
X383889D02*
X385889Y489173D01*
X387888D02*
X389887D01*
X388888D01*
Y495171D01*
X387888Y494172D01*
X392886Y489173D02*
X394886D01*
X393886D01*
Y495171D01*
X392886Y494172D01*
X389764Y479331D02*
Y485329D01*
X392763D01*
X393762Y484329D01*
Y482330D01*
X392763Y481330D01*
X389764D01*
X391763D02*
X393762Y479331D01*
X395762D02*
X397761D01*
X396761D01*
Y485329D01*
X395762Y484329D01*
X400760D02*
X401760Y485329D01*
X403759D01*
X404759Y484329D01*
Y480330D01*
X403759Y479331D01*
X401760D01*
X400760Y480330D01*
Y484329D01*
X330709Y479331D02*
Y485329D01*
X333708D01*
X334707Y484329D01*
Y482330D01*
X333708Y481330D01*
X330709D01*
X332708D02*
X334707Y479331D01*
X336707Y480330D02*
X337706Y479331D01*
X339706D01*
X340705Y480330D01*
Y484329D01*
X339706Y485329D01*
X337706D01*
X336707Y484329D01*
Y483329D01*
X337706Y482330D01*
X340705D01*
X340551Y469488D02*
Y475486D01*
X343550D01*
X344550Y474487D01*
Y472487D01*
X343550Y471488D01*
X340551D01*
X342550D02*
X344550Y469488D01*
X346549Y474487D02*
X347549Y475486D01*
X349548D01*
X350548Y474487D01*
Y473487D01*
X349548Y472487D01*
X350548Y471488D01*
Y470488D01*
X349548Y469488D01*
X347549D01*
X346549Y470488D01*
Y471488D01*
X347549Y472487D01*
X346549Y473487D01*
Y474487D01*
X347549Y472487D02*
X349548D01*
X398622Y469488D02*
Y475486D01*
X401621D01*
X402621Y474487D01*
Y472487D01*
X401621Y471488D01*
X398622D01*
X400621D02*
X402621Y469488D01*
X404620Y475486D02*
X408619D01*
Y474487D01*
X404620Y470488D01*
Y469488D01*
X392778Y280589D02*
X391779Y281589D01*
X389779D01*
X388779Y280589D01*
Y276590D01*
X389779Y275590D01*
X391779D01*
X392778Y276590D01*
X394778Y275590D02*
X396777D01*
X395777D01*
Y281589D01*
X394778Y280589D01*
X358191Y294353D02*
X357191Y293353D01*
Y291354D01*
X358191Y290354D01*
X362189D01*
X363189Y291354D01*
Y293353D01*
X362189Y294353D01*
X363189Y300351D02*
Y296352D01*
X359190Y300351D01*
X358191D01*
X357191Y299351D01*
Y297352D01*
X358191Y296352D01*
X485915Y318424D02*
X484915Y319423D01*
X482915D01*
X481916Y318424D01*
Y314425D01*
X482915Y313425D01*
X484915D01*
X485915Y314425D01*
X487914Y318424D02*
X488913Y319423D01*
X490913D01*
X491913Y318424D01*
Y317424D01*
X490913Y316424D01*
X489913D01*
X490913D01*
X491913Y315424D01*
Y314425D01*
X490913Y313425D01*
X488913D01*
X487914Y314425D01*
X546930Y362914D02*
X545930Y363914D01*
X543931D01*
X542932Y362914D01*
Y358915D01*
X543931Y357916D01*
X545930D01*
X546930Y358915D01*
X551929Y357916D02*
Y363914D01*
X548930Y360915D01*
X552928D01*
X499078Y432164D02*
X498078Y433163D01*
X496078D01*
X495079Y432164D01*
Y428165D01*
X496078Y427165D01*
X498078D01*
X499078Y428165D01*
X505076Y433163D02*
X501077D01*
Y430164D01*
X503076Y431164D01*
X504076D01*
X505076Y430164D01*
Y428165D01*
X504076Y427165D01*
X502076D01*
X501077Y428165D01*
X385293Y434572D02*
X384294Y435571D01*
X382294D01*
X381294Y434572D01*
Y430573D01*
X382294Y429573D01*
X384294D01*
X385293Y430573D01*
X391291Y435571D02*
X389292Y434572D01*
X387293Y432572D01*
Y430573D01*
X388292Y429573D01*
X390292D01*
X391291Y430573D01*
Y431573D01*
X390292Y432572D01*
X387293D01*
X476440Y475471D02*
X475440Y476471D01*
X473441D01*
X472441Y475471D01*
Y471472D01*
X473441Y470472D01*
X475440D01*
X476440Y471472D01*
X478439Y476471D02*
X482438D01*
Y475471D01*
X478439Y471472D01*
Y470472D01*
X475899Y395230D02*
X474899Y396230D01*
X472900D01*
X471900Y395230D01*
Y391231D01*
X472900Y390231D01*
X474899D01*
X475899Y391231D01*
X477898Y395230D02*
X478898Y396230D01*
X480897D01*
X481897Y395230D01*
Y394230D01*
X480897Y393231D01*
X481897Y392231D01*
Y391231D01*
X480897Y390231D01*
X478898D01*
X477898Y391231D01*
Y392231D01*
X478898Y393231D01*
X477898Y394230D01*
Y395230D01*
X478898Y393231D02*
X480897D01*
X422962Y386561D02*
X421962Y387561D01*
X419963D01*
X418963Y386561D01*
Y382563D01*
X419963Y381563D01*
X421962D01*
X422962Y382563D01*
X424961D02*
X425961Y381563D01*
X427960D01*
X428960Y382563D01*
Y386561D01*
X427960Y387561D01*
X425961D01*
X424961Y386561D01*
Y385562D01*
X425961Y384562D01*
X428960D01*
X475914Y385330D02*
X474915Y386330D01*
X472915D01*
X471916Y385330D01*
Y381331D01*
X472915Y380331D01*
X474915D01*
X475914Y381331D01*
X477914Y380331D02*
X479913D01*
X478913D01*
Y386330D01*
X477914Y385330D01*
X482912D02*
X483912Y386330D01*
X485911D01*
X486911Y385330D01*
Y381331D01*
X485911Y380331D01*
X483912D01*
X482912Y381331D01*
Y385330D01*
X427227Y504014D02*
X426227Y505014D01*
X424228D01*
X423228Y504014D01*
Y500015D01*
X424228Y499016D01*
X426227D01*
X427227Y500015D01*
X429226Y499016D02*
X431226D01*
X430226D01*
Y505014D01*
X429226Y504014D01*
X434225Y499016D02*
X436224D01*
X435224D01*
Y505014D01*
X434225Y504014D01*
X474471D02*
X473471Y505014D01*
X471472D01*
X470472Y504014D01*
Y500015D01*
X471472Y499016D01*
X473471D01*
X474471Y500015D01*
X476471Y499016D02*
X478470D01*
X477470D01*
Y505014D01*
X476471Y504014D01*
X485468Y499016D02*
X481469D01*
X485468Y503015D01*
Y504014D01*
X484468Y505014D01*
X482469D01*
X481469Y504014D01*
X519199Y337083D02*
X518199Y338082D01*
X516200D01*
X515200Y337083D01*
Y333084D01*
X516200Y332084D01*
X518199D01*
X519199Y333084D01*
X521198Y332084D02*
X523197D01*
X522198D01*
Y338082D01*
X521198Y337083D01*
X526196D02*
X527196Y338082D01*
X529195D01*
X530195Y337083D01*
Y336083D01*
X529195Y335083D01*
X528196D01*
X529195D01*
X530195Y334084D01*
Y333084D01*
X529195Y332084D01*
X527196D01*
X526196Y333084D01*
X517778Y424290D02*
X516779Y425289D01*
X514779D01*
X513779Y424290D01*
Y420291D01*
X514779Y419291D01*
X516779D01*
X517778Y420291D01*
X519778Y419291D02*
X521777D01*
X520777D01*
Y425289D01*
X519778Y424290D01*
X527775Y419291D02*
Y425289D01*
X524776Y422290D01*
X528775D01*
X471758Y268250D02*
Y262252D01*
X474756D01*
X475756Y263252D01*
Y267250D01*
X474756Y268250D01*
X471758D01*
X477755Y262252D02*
X479755D01*
X478755D01*
Y268250D01*
X477755Y267250D01*
X557663Y462493D02*
Y456495D01*
X560662D01*
X561662Y457494D01*
Y461493D01*
X560662Y462493D01*
X557663D01*
X567660Y456495D02*
X563661D01*
X567660Y460493D01*
Y461493D01*
X566660Y462493D01*
X564661D01*
X563661Y461493D01*
X577390Y462467D02*
Y456468D01*
X580389D01*
X581389Y457468D01*
Y461467D01*
X580389Y462467D01*
X577390D01*
X583388Y461467D02*
X584387Y462467D01*
X586387D01*
X587387Y461467D01*
Y460467D01*
X586387Y459468D01*
X585387D01*
X586387D01*
X587387Y458468D01*
Y457468D01*
X586387Y456468D01*
X584387D01*
X583388Y457468D01*
X522699Y242218D02*
X518701D01*
Y239219D01*
X520700D01*
X518701D01*
Y236221D01*
X524699Y242218D02*
Y236221D01*
X527698D01*
X528698Y237220D01*
Y238220D01*
X527698Y239219D01*
X524699D01*
X527698D01*
X528698Y240219D01*
Y241219D01*
X527698Y242218D01*
X524699D01*
X530697Y236221D02*
X532696D01*
X531697D01*
Y242218D01*
X530697Y241219D01*
X318075Y344958D02*
X320074D01*
X319075D01*
Y338960D01*
X318075D01*
X320074D01*
X327072Y343958D02*
X326072Y344958D01*
X324073D01*
X323073Y343958D01*
Y339960D01*
X324073Y338960D01*
X326072D01*
X327072Y339960D01*
X329071Y338960D02*
X331071D01*
X330071D01*
Y344958D01*
X329071Y343958D01*
X502747Y381198D02*
X504747D01*
X503747D01*
Y375200D01*
X502747D01*
X504747D01*
X511744Y380198D02*
X510745Y381198D01*
X508745D01*
X507746Y380198D01*
Y376200D01*
X508745Y375200D01*
X510745D01*
X511744Y376200D01*
X517742Y375200D02*
X513744D01*
X517742Y379199D01*
Y380198D01*
X516743Y381198D01*
X514743D01*
X513744Y380198D01*
X410642Y465471D02*
X412642D01*
X411642D01*
Y459472D01*
X410642D01*
X412642D01*
X419640Y464471D02*
X418640Y465471D01*
X416641D01*
X415641Y464471D01*
Y460472D01*
X416641Y459472D01*
X418640D01*
X419640Y460472D01*
X421639Y464471D02*
X422639Y465471D01*
X424638D01*
X425638Y464471D01*
Y463471D01*
X424638Y462471D01*
X423638D01*
X424638D01*
X425638Y461472D01*
Y460472D01*
X424638Y459472D01*
X422639D01*
X421639Y460472D01*
X530512Y391825D02*
X532511D01*
X531511D01*
Y385827D01*
X530512D01*
X532511D01*
X539509Y390825D02*
X538509Y391825D01*
X536510D01*
X535510Y390825D01*
Y386826D01*
X536510Y385827D01*
X538509D01*
X539509Y386826D01*
X544507Y385827D02*
Y391825D01*
X541508Y388826D01*
X545507D01*
X372569Y253256D02*
X370569D01*
X371569D01*
Y248257D01*
X370569Y247257D01*
X369570D01*
X368570Y248257D01*
X374568Y247257D02*
X376568D01*
X375568D01*
Y253256D01*
X374568Y252256D01*
X205616Y526637D02*
Y524637D01*
Y525637D01*
X210614D01*
X211614Y524637D01*
Y523637D01*
X210614Y522638D01*
X211614Y532635D02*
Y528636D01*
X207615Y532635D01*
X206616D01*
X205616Y531635D01*
Y529635D01*
X206616Y528636D01*
X205616Y363251D02*
Y361251D01*
Y362251D01*
X210614D01*
X211614Y361251D01*
Y360252D01*
X210614Y359252D01*
X206616Y365250D02*
X205616Y366250D01*
Y368249D01*
X206616Y369249D01*
X207615D01*
X208615Y368249D01*
Y367249D01*
Y368249D01*
X209615Y369249D01*
X210614D01*
X211614Y368249D01*
Y366250D01*
X210614Y365250D01*
X205616Y480377D02*
Y478377D01*
Y479377D01*
X210614D01*
X211614Y478377D01*
Y477378D01*
X210614Y476378D01*
X211614Y485375D02*
X205616D01*
X208615Y482376D01*
Y486375D01*
X205616Y323881D02*
Y321881D01*
Y322881D01*
X210614D01*
X211614Y321881D01*
Y320882D01*
X210614Y319882D01*
X205616Y329879D02*
Y325880D01*
X208615D01*
X207615Y327879D01*
Y328879D01*
X208615Y329879D01*
X210614D01*
X211614Y328879D01*
Y326880D01*
X210614Y325880D01*
X205616Y441991D02*
Y439992D01*
Y440991D01*
X210614D01*
X211614Y439992D01*
Y438992D01*
X210614Y437992D01*
X205616Y447989D02*
X206616Y445990D01*
X208615Y443990D01*
X210614D01*
X211614Y444990D01*
Y446989D01*
X210614Y447989D01*
X209615D01*
X208615Y446989D01*
Y443990D01*
X205616Y284510D02*
Y282511D01*
Y283511D01*
X210614D01*
X211614Y282511D01*
Y281511D01*
X210614Y280512D01*
X205616Y286510D02*
Y290509D01*
X206616D01*
X210614Y286510D01*
X211614D01*
X205616Y402621D02*
Y400621D01*
Y401621D01*
X210614D01*
X211614Y400621D01*
Y399622D01*
X210614Y398622D01*
X206616Y404620D02*
X205616Y405620D01*
Y407619D01*
X206616Y408619D01*
X207615D01*
X208615Y407619D01*
X209615Y408619D01*
X210614D01*
X211614Y407619D01*
Y405620D01*
X210614Y404620D01*
X209615D01*
X208615Y405620D01*
X207615Y404620D01*
X206616D01*
X208615Y405620D02*
Y407619D01*
X205616Y245140D02*
Y243141D01*
Y244141D01*
X210614D01*
X211614Y243141D01*
Y242141D01*
X210614Y241142D01*
Y247140D02*
X211614Y248140D01*
Y250139D01*
X210614Y251138D01*
X206616D01*
X205616Y250139D01*
Y248140D01*
X206616Y247140D01*
X207615D01*
X208615Y248140D01*
Y251138D01*
X540416Y258951D02*
X538417D01*
X539416D01*
Y253952D01*
X538417Y252953D01*
X537417D01*
X536417Y253952D01*
X542415Y252953D02*
X544415D01*
X543415D01*
Y258951D01*
X542415Y257951D01*
X547414D02*
X548413Y258951D01*
X550413D01*
X551412Y257951D01*
Y253952D01*
X550413Y252953D01*
X548413D01*
X547414Y253952D01*
Y257951D01*
X539432Y461707D02*
X537432D01*
X538432D01*
Y456708D01*
X537432Y455709D01*
X536433D01*
X535433Y456708D01*
X541431Y455709D02*
X543431D01*
X542431D01*
Y461707D01*
X541431Y460707D01*
X546429Y455709D02*
X548429D01*
X547429D01*
Y461707D01*
X546429Y460707D01*
X548136Y381951D02*
Y379952D01*
Y380952D01*
X553134D01*
X554134Y379952D01*
Y378952D01*
X553134Y377953D01*
X554134Y383951D02*
Y385950D01*
Y384950D01*
X548136D01*
X549135Y383951D01*
X554134Y392948D02*
Y388949D01*
X550135Y392948D01*
X549135D01*
X548136Y391948D01*
Y389949D01*
X549135Y388949D01*
X569944Y328833D02*
X567944D01*
X568944D01*
Y323834D01*
X567944Y322835D01*
X566945D01*
X565945Y323834D01*
X571943Y322835D02*
X573942D01*
X572943D01*
Y328833D01*
X571943Y327833D01*
X576941D02*
X577941Y328833D01*
X579940D01*
X580940Y327833D01*
Y326833D01*
X579940Y325834D01*
X578941D01*
X579940D01*
X580940Y324834D01*
Y323834D01*
X579940Y322835D01*
X577941D01*
X576941Y323834D01*
X541400Y376077D02*
X539401D01*
X540401D01*
Y371078D01*
X539401Y370079D01*
X538401D01*
X537402Y371078D01*
X543400Y370079D02*
X545399D01*
X544399D01*
Y376077D01*
X543400Y375077D01*
X551397Y370079D02*
Y376077D01*
X548398Y373078D01*
X552397D01*
X359159Y566007D02*
Y564007D01*
Y565007D01*
X364158D01*
X365158Y564007D01*
Y563007D01*
X364158Y562008D01*
X365158Y568006D02*
Y570005D01*
Y569006D01*
X359159D01*
X360159Y568006D01*
X359159Y577003D02*
Y573004D01*
X362158D01*
X361159Y575004D01*
Y576003D01*
X362158Y577003D01*
X364158D01*
X365158Y576003D01*
Y574004D01*
X364158Y573004D01*
X505500Y230016D02*
Y236014D01*
X508499D01*
X509499Y235014D01*
Y233015D01*
X508499Y232015D01*
X505500D01*
X507499D02*
X509499Y230016D01*
X511498D02*
X513497D01*
X512498D01*
Y236014D01*
X511498Y235014D01*
X368110Y257874D02*
Y263872D01*
X371109D01*
X372109Y262872D01*
Y260873D01*
X371109Y259873D01*
X368110D01*
X370110D02*
X372109Y257874D01*
X378107D02*
X374108D01*
X378107Y261873D01*
Y262872D01*
X377107Y263872D01*
X375108D01*
X374108Y262872D01*
X512795Y500984D02*
Y506982D01*
X515794D01*
X516794Y505983D01*
Y503983D01*
X515794Y502984D01*
X512795D01*
X514795D02*
X516794Y500984D01*
X518793Y505983D02*
X519793Y506982D01*
X521792D01*
X522792Y505983D01*
Y504983D01*
X521792Y503983D01*
X520793D01*
X521792D01*
X522792Y502984D01*
Y501984D01*
X521792Y500984D01*
X519793D01*
X518793Y501984D01*
X518701Y429134D02*
Y435132D01*
X521700D01*
X522699Y434132D01*
Y432133D01*
X521700Y431133D01*
X518701D01*
X520700D02*
X522699Y429134D01*
X527698D02*
Y435132D01*
X524699Y432133D01*
X528698D01*
X497047Y520669D02*
Y526667D01*
X500046D01*
X501046Y525668D01*
Y523668D01*
X500046Y522669D01*
X497047D01*
X499047D02*
X501046Y520669D01*
X507044Y526667D02*
X503045D01*
Y523668D01*
X505045Y524668D01*
X506044D01*
X507044Y523668D01*
Y521669D01*
X506044Y520669D01*
X504045D01*
X503045Y521669D01*
X399606Y525591D02*
X393608D01*
Y528590D01*
X394608Y529589D01*
X396607D01*
X397607Y528590D01*
Y525591D01*
Y527590D02*
X399606Y529589D01*
X393608Y535587D02*
X394608Y533588D01*
X396607Y531589D01*
X398607D01*
X399606Y532588D01*
Y534588D01*
X398607Y535587D01*
X397607D01*
X396607Y534588D01*
Y531589D01*
X421260Y488281D02*
X425259Y482283D01*
Y488281D02*
X421260Y482283D01*
X427258D02*
X429257D01*
X428258D01*
Y488281D01*
X427258Y487282D01*
X302073Y566007D02*
Y564007D01*
Y565007D01*
X307071D01*
X308071Y564007D01*
Y563007D01*
X307071Y562008D01*
X308071Y568006D02*
Y570005D01*
Y569006D01*
X302073D01*
X303073Y568006D01*
X302073Y577003D02*
X303073Y575004D01*
X305072Y573004D01*
X307071D01*
X308071Y574004D01*
Y576003D01*
X307071Y577003D01*
X306071D01*
X305072Y576003D01*
Y573004D01*
X302073Y536479D02*
Y534480D01*
Y535479D01*
X307071D01*
X308071Y534480D01*
Y533480D01*
X307071Y532480D01*
X308071Y538478D02*
Y540478D01*
Y539478D01*
X302073D01*
X303073Y538478D01*
X302073Y543477D02*
Y547475D01*
X303073D01*
X307071Y543477D01*
X308071D01*
X484159Y550259D02*
Y548259D01*
Y549259D01*
X489158D01*
X490158Y548259D01*
Y547260D01*
X489158Y546260D01*
X490158Y552258D02*
Y554257D01*
Y553258D01*
X484159D01*
X485159Y552258D01*
Y557256D02*
X484159Y558256D01*
Y560255D01*
X485159Y561255D01*
X486159D01*
X487158Y560255D01*
X488158Y561255D01*
X489158D01*
X490158Y560255D01*
Y558256D01*
X489158Y557256D01*
X488158D01*
X487158Y558256D01*
X486159Y557256D01*
X485159D01*
X487158Y558256D02*
Y560255D01*
X311899Y467998D02*
X309899D01*
X310899D01*
Y463000D01*
X309899Y462000D01*
X308900D01*
X307900Y463000D01*
X317897Y462000D02*
X313898D01*
X317897Y465999D01*
Y466998D01*
X316897Y467998D01*
X314898D01*
X313898Y466998D01*
X319896D02*
X320896Y467998D01*
X322895D01*
X323895Y466998D01*
Y463000D01*
X322895Y462000D01*
X320896D01*
X319896Y463000D01*
Y466998D01*
X372714Y335021D02*
X370714D01*
X371714D01*
Y330023D01*
X370714Y329023D01*
X369715D01*
X368715Y330023D01*
X374713Y329023D02*
X376712D01*
X375713D01*
Y335021D01*
X374713Y334021D01*
X379711Y330023D02*
X380711Y329023D01*
X382710D01*
X383710Y330023D01*
Y334021D01*
X382710Y335021D01*
X380711D01*
X379711Y334021D01*
Y333021D01*
X380711Y332022D01*
X383710D01*
M02*
