%FSLAX25Y25*%
%MOIN*%
G70*
G01*
G75*
G04 Layer_Physical_Order=2*
G04 Layer_Color=16711680*
%ADD10R,0.04331X0.05512*%
%ADD11R,0.05512X0.04331*%
%ADD12R,0.05906X0.05000*%
%ADD13R,0.03937X0.01575*%
%ADD14R,0.04724X0.01181*%
%ADD15R,0.01181X0.04724*%
%ADD16R,0.04921X0.01181*%
%ADD17C,0.01181*%
%ADD18C,0.05906*%
%ADD19C,0.01969*%
%ADD20C,0.03937*%
%ADD21C,0.04331*%
%ADD22C,0.11811*%
%ADD23C,0.06000*%
%ADD24C,0.06693*%
%ADD25C,0.05906*%
%ADD26C,0.06299*%
%ADD27O,0.06299X0.06535*%
%ADD28O,0.06535X0.06299*%
%ADD29C,0.03937*%
%ADD30C,0.03543*%
D17*
X368110Y424213D02*
X370079Y426181D01*
Y458661D01*
X322835Y448819D02*
X348425D01*
X372047Y472441D02*
X393701D01*
X348425Y448819D02*
X372047Y472441D01*
X331693Y452756D02*
X334646D01*
X354331Y472441D01*
X321850Y460630D02*
X322835D01*
X344488Y482283D01*
X315945Y469488D02*
X326772D01*
X329724Y472441D01*
Y483268D01*
X332677Y486221D01*
X380906D01*
X384842Y482283D01*
X320866Y473622D02*
Y483268D01*
X329724Y492126D01*
X376969D01*
X315945Y477362D02*
Y486221D01*
X321850Y492126D01*
X314961Y501968D02*
X369094D01*
X309055Y496063D02*
X314961Y501968D01*
X309055Y481299D02*
Y496063D01*
X560709Y417992D02*
X561024Y418307D01*
X560709Y399606D02*
Y417992D01*
X275905Y350079D02*
Y369016D01*
Y350079D02*
X282480Y343504D01*
Y336221D02*
Y343504D01*
X275905Y329646D02*
X282480Y336221D01*
X281496Y347610D02*
X308515Y320590D01*
X319646D01*
X281496Y362205D02*
Y373425D01*
X281496Y347610D02*
Y362205D01*
X281496Y362205D02*
X281496Y362205D01*
X235906Y536496D02*
X241142Y531260D01*
Y516732D02*
Y531260D01*
X235906Y511496D02*
X241142Y516732D01*
X235906Y497126D02*
Y511496D01*
Y299696D02*
Y300276D01*
Y299696D02*
X241142Y294460D01*
Y280512D02*
Y294460D01*
X235906Y275276D02*
X241142Y280512D01*
X235906Y260906D02*
Y275276D01*
X245905Y280354D02*
Y290276D01*
X241142Y275590D02*
X245905Y280354D01*
X241142Y255669D02*
Y275590D01*
Y297244D02*
Y313976D01*
Y297244D02*
X245905Y292480D01*
Y290276D02*
Y292480D01*
X235906Y337913D02*
Y339646D01*
Y337913D02*
X241142Y332677D01*
Y319882D02*
Y332677D01*
X235906Y314646D02*
X241142Y319882D01*
X235906Y300276D02*
Y314646D01*
X241142Y313976D02*
Y314961D01*
X245079Y318898D01*
X246063D01*
X241142Y313976D02*
X246063Y318898D01*
X245905Y329646D02*
X246063Y329488D01*
Y318898D02*
Y329488D01*
X241142Y336614D02*
Y354331D01*
Y336614D02*
X245905Y331850D01*
Y329646D02*
Y331850D01*
X493110Y360236D02*
X496063Y363189D01*
X512795D01*
X275905Y477677D02*
Y487126D01*
X271181Y472953D02*
X275905Y477677D01*
X271181Y455799D02*
Y472953D01*
Y455799D02*
X275905Y451075D01*
Y447756D02*
Y451075D01*
X389764Y532717D02*
X390748Y531732D01*
Y517717D02*
Y531732D01*
X319646Y300590D02*
X322441D01*
X327756Y295276D01*
Y289370D02*
Y295276D01*
X323819Y285433D02*
X327756Y289370D01*
X316929Y285433D02*
X323819D01*
X313976Y282480D02*
X316929Y285433D01*
X313976Y268701D02*
Y282480D01*
Y268701D02*
X316929Y265748D01*
X324803D01*
X326772Y263779D01*
Y253937D02*
Y263779D01*
X323425Y250590D02*
X326772Y253937D01*
X319646Y250590D02*
X323425D01*
X341535Y265748D02*
X352362D01*
X336693Y270590D02*
X341535Y265748D01*
X319646Y270590D02*
X336693D01*
X375512Y325787D02*
X388228Y313071D01*
X360236Y325787D02*
X375512D01*
X398228Y313071D02*
Y326181D01*
X387795Y336614D02*
X398228Y326181D01*
X381890Y336614D02*
X387795D01*
X470276Y239173D02*
X478071Y231378D01*
X453740Y239173D02*
X470276D01*
X448071Y233504D02*
X453740Y239173D01*
X448071Y231378D02*
Y233504D01*
X348425Y408465D02*
X353346Y403543D01*
Y375000D02*
Y403543D01*
X504920Y388779D02*
X530513D01*
X532480Y392717D02*
X547244Y377953D01*
X501968Y392717D02*
X532480D01*
X500000Y398622D02*
X520669D01*
X570709Y341535D02*
X570866Y341693D01*
Y356299D01*
X550197Y367126D02*
Y369094D01*
X530513Y388779D02*
X550197Y369094D01*
X311024Y234252D02*
X343307D01*
X271654D02*
X311024D01*
X442795Y214449D02*
Y226654D01*
X311024Y230315D02*
Y234252D01*
Y218504D02*
X317913Y211614D01*
X439961D01*
X442795Y214449D01*
X438071Y231378D02*
X442795Y226654D01*
X349646Y230591D02*
X366653Y213583D01*
X434055D01*
X438071Y217598D01*
Y221378D01*
X334646Y246063D02*
X335118D01*
X280748D02*
X334646D01*
X319646Y310591D02*
X331693Y298543D01*
Y287402D02*
Y298543D01*
Y287402D02*
X343504Y275590D01*
X351378D01*
X356299Y270669D01*
Y246063D02*
Y270669D01*
Y246063D02*
X370984Y231378D01*
X388071D01*
X352362Y265748D02*
X354331Y263779D01*
Y244094D02*
Y263779D01*
Y244094D02*
X372047Y226378D01*
X393071D01*
X398071Y221378D01*
X373110D02*
X388071D01*
X360236Y234252D02*
X373110Y221378D01*
X347441Y234252D02*
X360236D01*
X343779Y230591D02*
X347441Y234252D01*
X319646Y230591D02*
X343779D01*
X241142Y255669D02*
X245905Y250905D01*
X250984Y314961D02*
X255906Y319882D01*
Y329646D01*
Y300276D02*
Y314961D01*
X260827Y319882D01*
Y334724D01*
X255906Y339646D02*
X260827Y334724D01*
X245905Y300276D02*
Y314803D01*
X250984Y319882D01*
X260827Y314961D02*
X265905Y320039D01*
Y329646D01*
Y300276D02*
Y315118D01*
X270669Y319882D01*
Y334882D01*
X265905Y339646D02*
X270669Y334882D01*
Y314961D02*
X275590Y319882D01*
Y329331D01*
X275905Y329646D01*
X245905Y339646D02*
Y354173D01*
X250984Y359252D01*
Y373937D01*
X245905Y379016D02*
X250984Y373937D01*
X255906Y359252D02*
Y369016D01*
Y339646D02*
Y354331D01*
X245905Y260906D02*
Y275433D01*
X250984Y280512D01*
Y255827D02*
X255906Y250905D01*
X250984Y255827D02*
Y275590D01*
X255906Y280512D01*
Y290276D01*
Y260906D02*
Y275590D01*
X260827Y280512D01*
Y275590D02*
X265905Y280669D01*
Y290276D01*
Y260906D02*
Y275748D01*
X270669Y280512D01*
X275905Y280827D02*
Y290276D01*
X255906D02*
Y293307D01*
X250984Y298228D02*
X255906Y293307D01*
X250984Y298228D02*
Y314961D01*
X265905Y290276D02*
Y293150D01*
X260827Y298228D02*
X265905Y293150D01*
X260827Y298228D02*
Y314961D01*
X275905Y290276D02*
Y292992D01*
X270669Y298228D02*
X275905Y292992D01*
X270669Y298228D02*
Y314961D01*
X255906Y300276D02*
X260827Y295354D01*
Y280512D02*
Y295354D01*
X245905Y300276D02*
X250984Y295197D01*
Y280512D02*
Y295197D01*
X255906Y354331D02*
X260827Y359252D01*
Y374095D01*
X255906Y379016D02*
X260827Y374095D01*
X265905Y329646D02*
Y332520D01*
X260827Y337598D02*
X265905Y332520D01*
X260827Y337598D02*
Y354331D01*
X265748Y359252D01*
Y368858D01*
X265905Y369016D01*
Y339646D02*
Y354488D01*
X270669Y359252D01*
Y374252D01*
X265905Y379016D02*
X270669Y374252D01*
X245905Y379016D02*
Y393543D01*
X250984Y398622D01*
X255906Y369016D02*
Y372047D01*
X250984Y376969D02*
X255906Y372047D01*
X250984Y376969D02*
Y393701D01*
X255906Y398622D01*
Y408386D01*
X241142Y393701D02*
X246063Y398622D01*
Y408228D01*
X245905Y408386D02*
Y408386D01*
Y408386D02*
X246063Y408228D01*
X235906Y379016D02*
Y393386D01*
X241142Y398622D01*
Y354331D02*
X246063Y359252D01*
Y368858D01*
X245905Y369016D02*
Y369016D01*
Y369016D02*
X246063Y368858D01*
X235906Y339646D02*
Y354016D01*
X241142Y359252D01*
Y375984D02*
Y393701D01*
Y375984D02*
X245905Y371220D01*
Y369016D02*
Y371220D01*
X235906Y418386D02*
Y432756D01*
X241142Y437992D01*
X246063Y437732D02*
Y447598D01*
X245905Y447756D02*
X246063Y447598D01*
X245905Y418386D02*
Y432913D01*
X250984Y437992D01*
Y433071D02*
X255906Y437992D01*
Y447756D01*
Y418386D02*
Y433071D01*
X260827Y437992D01*
Y452835D01*
X255906Y457756D02*
X260827Y452835D01*
Y433071D02*
X265748Y437992D01*
Y447598D01*
X265905Y447756D01*
Y418386D02*
Y433228D01*
Y457024D02*
X270539Y452390D01*
X265905Y457024D02*
Y457756D01*
X270669Y433071D02*
X275590Y437992D01*
Y447441D01*
X275905Y447756D01*
X235906Y457756D02*
Y472126D01*
X241142Y477362D01*
X246063D02*
Y486969D01*
X245905Y487126D02*
X246063Y486969D01*
X245905Y457756D02*
Y472284D01*
X250984Y477362D01*
X255906D02*
Y487126D01*
Y457756D02*
Y472441D01*
X260827Y477362D01*
X265905Y447756D02*
Y450630D01*
X260827Y455709D02*
X265905Y450630D01*
X260827Y455709D02*
Y472441D01*
X265748Y477362D01*
Y486969D01*
X265905Y487126D01*
Y457756D02*
Y472598D01*
X270669Y477362D01*
X245905Y497126D02*
Y511654D01*
X250984Y516732D01*
Y531417D01*
X245905Y536496D02*
X250984Y531417D01*
X245905Y516575D02*
Y526496D01*
X255906Y516732D02*
Y526496D01*
Y497126D02*
Y511811D01*
X260827Y516732D01*
Y531575D01*
X255906Y536496D02*
X260827Y531575D01*
X265905Y516890D02*
Y526496D01*
Y497126D02*
Y511969D01*
X270669Y516732D01*
Y531732D01*
X265905Y536496D02*
X270669Y531732D01*
Y511811D02*
X275905Y517047D01*
Y526496D01*
X265748Y225394D02*
X344449D01*
X349646Y230591D01*
X265905Y240000D02*
Y250905D01*
Y240000D02*
X271654Y234252D01*
X343307D02*
X349646Y240591D01*
X335276Y236221D02*
X349646Y250590D01*
X335118Y246063D02*
X349646Y260591D01*
X275905Y250905D02*
X280748Y246063D01*
X275905Y260906D02*
X319331D01*
X319646Y260591D01*
X275905Y300276D02*
X289291D01*
X298976Y290591D01*
X260539Y396941D02*
X268701Y388779D01*
X276575D01*
X265905Y402402D02*
Y408386D01*
X275905Y400276D02*
Y408386D01*
X330709Y329528D02*
X349646Y310591D01*
X327756Y322480D02*
X349646Y300590D01*
X324803Y315433D02*
X349646Y290591D01*
X283465Y348425D02*
Y381890D01*
Y348425D02*
X295276Y336614D01*
X320866D01*
X324803Y332677D01*
X276575Y388779D02*
X283465Y381890D01*
X324803Y315433D02*
Y332677D01*
X285433Y349410D02*
Y382874D01*
Y349410D02*
X296260Y338583D01*
X321850D01*
X327756Y332677D01*
X265905Y402402D02*
X285433Y382874D01*
X327756Y322480D02*
Y332677D01*
X287402Y350394D02*
Y384842D01*
Y350394D02*
X297244Y340551D01*
X322835D01*
X330709Y332677D01*
Y329528D02*
Y332677D01*
X289370Y351378D02*
Y386811D01*
Y351378D02*
X298228Y342520D01*
X323819D01*
X345748Y320590D01*
X349646D01*
X275905Y400276D02*
X289370Y386811D01*
X275905Y418386D02*
X291339Y402953D01*
Y355315D02*
Y402953D01*
Y355315D02*
X293307Y353346D01*
X275905Y379016D02*
X281496Y373425D01*
X250984Y437992D02*
Y450787D01*
X245905Y455866D02*
X250984Y450787D01*
X245905Y455866D02*
Y457756D01*
X235906Y457008D02*
X241142Y451772D01*
X235906Y457008D02*
Y457756D01*
X241142Y437992D02*
Y451772D01*
X245905Y447756D02*
Y449961D01*
X241142Y454724D02*
X245905Y449961D01*
X241142Y472441D02*
X246063Y477362D01*
X241142Y454724D02*
Y472441D01*
X255906Y447756D02*
Y449803D01*
X250984Y454724D02*
X255906Y449803D01*
X250984Y454724D02*
Y472441D01*
X255906Y477362D01*
X270539Y449894D02*
X270630Y449803D01*
X265905Y433228D02*
X270630Y437953D01*
X270539Y449894D02*
Y452390D01*
X270630Y437953D02*
Y449803D01*
X241142Y477362D02*
Y490158D01*
X235906Y495394D02*
X241142Y490158D01*
X235906Y495394D02*
Y497126D01*
X250984Y477362D02*
Y490158D01*
X245905Y495236D02*
X250984Y490158D01*
X245905Y495236D02*
Y497126D01*
X255906Y487126D02*
Y489173D01*
X251181Y493898D02*
X255906Y489173D01*
X251181Y493898D02*
Y512008D01*
X255906Y516732D01*
X245905Y487126D02*
Y490445D01*
X241181Y495169D02*
X245905Y490445D01*
X241181Y495169D02*
Y511850D01*
X245905Y516575D01*
X255906Y495079D02*
X260827Y490158D01*
X255906Y495079D02*
Y497126D01*
X260827Y477362D02*
Y490158D01*
X265905Y487126D02*
Y489016D01*
X260827Y494095D02*
X265905Y489016D01*
X260827Y494095D02*
Y511811D01*
X265905Y516890D01*
X270669Y477362D02*
Y491142D01*
X265905Y495905D02*
X270669Y491142D01*
X265905Y495905D02*
Y497126D01*
X275905Y487126D02*
Y488858D01*
X270669Y494095D02*
X275905Y488858D01*
X270669Y494095D02*
Y511811D01*
X241142Y398622D02*
Y411417D01*
X235906Y416653D02*
X241142Y411417D01*
X235906Y416653D02*
Y418386D01*
X245905Y408386D02*
Y409606D01*
X241142Y414370D02*
X245905Y409606D01*
X241142Y414370D02*
Y432811D01*
X246063Y437732D01*
X245905Y416496D02*
X250984Y411417D01*
X245905Y416496D02*
Y418386D01*
X250984Y398622D02*
Y411417D01*
X255906Y408386D02*
Y409449D01*
X250984Y414370D02*
X255906Y409449D01*
X250984Y414370D02*
Y433071D01*
X265905Y408386D02*
Y410276D01*
X260827Y415354D02*
X265905Y410276D01*
X260827Y415354D02*
Y433071D01*
X260539Y399606D02*
X260630Y399697D01*
Y412767D01*
X255906Y417492D02*
X260630Y412767D01*
X255906Y417492D02*
Y418386D01*
X260539Y396941D02*
Y399606D01*
X275905Y408386D02*
Y411102D01*
X270669Y416339D02*
X275905Y411102D01*
X270669Y416339D02*
Y433071D01*
X265905Y418319D02*
X271181Y413043D01*
X265905Y418319D02*
Y418386D01*
X271181Y401063D02*
Y413043D01*
Y401063D02*
X287402Y384842D01*
X235906Y376299D02*
X241142Y371063D01*
Y359252D02*
Y371063D01*
X235906Y376299D02*
Y379016D01*
X245905Y337756D02*
X250984Y332677D01*
X245905Y337756D02*
Y339646D01*
X250984Y319882D02*
Y332677D01*
X255906Y329646D02*
Y331693D01*
X251181Y341693D02*
X251272Y341784D01*
X251181Y336417D02*
Y341693D01*
X251272Y341784D02*
Y354618D01*
X251181Y336417D02*
X255906Y331693D01*
X251272Y354618D02*
X255906Y359252D01*
X270669Y280512D02*
Y294291D01*
X265905Y299055D02*
X270669Y294291D01*
X265905Y299055D02*
Y300276D01*
X275905Y250905D02*
Y253689D01*
X270669Y258926D02*
X275905Y253689D01*
X270669Y258926D02*
Y275590D01*
X275905Y280827D01*
X265905Y259685D02*
Y260906D01*
X270669Y240158D02*
Y254921D01*
X265905Y259685D02*
X270669Y254921D01*
X265905Y250905D02*
Y252795D01*
X260827Y257874D02*
X265905Y252795D01*
X260827Y257874D02*
Y275590D01*
X260539Y230602D02*
Y248858D01*
X260630Y248949D01*
Y255287D01*
X255906Y260011D02*
X260630Y255287D01*
X255906Y260011D02*
Y260906D01*
X260539Y230602D02*
X265748Y225394D01*
X274606Y236221D02*
X335276D01*
X270669Y240158D02*
X274606Y236221D01*
X275905Y457756D02*
X293307Y440354D01*
Y360236D02*
Y440354D01*
Y360236D02*
X297244Y356299D01*
Y348425D02*
Y356299D01*
X299213Y290591D02*
X319646D01*
X275905Y497126D02*
X295276Y477756D01*
Y363189D02*
Y477756D01*
Y363189D02*
X301181Y357283D01*
Y345472D02*
X302165Y346457D01*
X301181D02*
Y357283D01*
X275905Y536496D02*
X298228Y514173D01*
Y378937D02*
Y514173D01*
Y378937D02*
X300197Y376969D01*
D18*
X389764Y532717D02*
X481535D01*
X354567D02*
X389764D01*
X481535D02*
X485394Y528858D01*
X458228Y556024D02*
X481535Y532717D01*
X346929Y540354D02*
Y568898D01*
Y540354D02*
X354567Y532717D01*
X485394Y465551D02*
Y524606D01*
Y455551D02*
Y465551D01*
X475394D02*
X485394D01*
Y455551D02*
X500000Y440945D01*
X570551Y449803D02*
X570709Y449646D01*
X561024Y449803D02*
X570551D01*
X570866D02*
X580709D01*
X570709Y449646D02*
X570866Y449803D01*
X570709Y399606D02*
Y449646D01*
Y388622D02*
Y399606D01*
X560709Y378622D02*
X570709Y388622D01*
X560709Y371063D02*
Y378622D01*
X519685Y420276D02*
X521654Y422244D01*
X504921Y420276D02*
X519685D01*
X452756Y489173D02*
X465394Y501811D01*
X452756Y489173D02*
Y495079D01*
X465394Y501811D02*
Y524606D01*
X452756Y479331D02*
Y489173D01*
X485394Y524606D02*
Y528858D01*
X560709Y341535D02*
Y371063D01*
X553150Y341535D02*
X560709D01*
X536417Y324803D02*
X553150Y341535D01*
X493110Y360236D02*
Y386811D01*
Y323819D02*
Y360236D01*
X580709Y341535D02*
Y371063D01*
Y324803D02*
Y341535D01*
X578740Y322835D02*
X580709Y324803D01*
X547244Y322835D02*
X578740D01*
X527559Y303150D02*
X547244Y322835D01*
X513779Y303150D02*
X527559D01*
X452756Y479331D02*
X457677Y474409D01*
Y473803D02*
Y474409D01*
Y473803D02*
X476378Y455102D01*
Y421260D02*
Y455102D01*
X376968Y411418D02*
X422244Y366142D01*
X376968Y411418D02*
Y419290D01*
X422244Y356299D02*
Y366142D01*
Y350394D02*
Y356299D01*
X401083Y355807D02*
X425197Y331693D01*
X359252Y397638D02*
X401083Y355807D01*
X404035D02*
X412402Y364173D01*
X401083Y355807D02*
X404035D01*
X363189Y424213D02*
X368110D01*
X359252Y420276D02*
X363189Y424213D01*
X359252Y397638D02*
Y420276D01*
X425197Y331693D02*
X459646D01*
X469488Y321850D01*
Y312008D02*
Y321850D01*
Y312008D02*
X505905Y275590D01*
X500000Y428150D02*
Y440945D01*
X493110Y421260D02*
X500000Y428150D01*
X493110Y415354D02*
Y421260D01*
X476378Y347441D02*
Y364173D01*
Y324803D02*
Y347441D01*
X422244Y350394D02*
X425197Y347441D01*
X476378D01*
X498032Y420276D02*
X504921D01*
X493110Y415354D02*
X498032Y420276D01*
X493110Y386811D02*
Y415354D01*
X486221Y392717D02*
X487205D01*
X493110Y386811D01*
Y323819D02*
X513779Y303150D01*
Y283465D02*
Y303150D01*
X505905Y275590D02*
X513779Y283465D01*
X485236Y430118D02*
X488189D01*
X476378Y421260D02*
X485236Y430118D01*
X476378Y364173D02*
Y421260D01*
Y364173D02*
X483268D01*
X476378Y324803D02*
X505905Y295276D01*
X375984Y281496D02*
X467520D01*
X503937Y273622D02*
X505905Y275590D01*
X375984Y273622D02*
X503937D01*
D19*
X458228Y566024D02*
X477283D01*
X487284Y556024D01*
X511654D01*
X531653Y539528D02*
Y556024D01*
X520984Y528858D02*
X531653Y539528D01*
X485394Y528858D02*
X520984D01*
X336614Y291339D02*
X342520Y285433D01*
X372047D01*
X375984Y281496D01*
D21*
Y273622D02*
D03*
Y281496D02*
D03*
X319646Y330591D02*
D03*
Y320590D02*
D03*
Y310591D02*
D03*
Y300590D02*
D03*
Y290591D02*
D03*
Y280591D02*
D03*
Y270590D02*
D03*
Y260591D02*
D03*
Y250590D02*
D03*
Y240591D02*
D03*
Y230591D02*
D03*
Y220590D02*
D03*
X349646D02*
D03*
Y230591D02*
D03*
Y240591D02*
D03*
Y250590D02*
D03*
Y260591D02*
D03*
Y270590D02*
D03*
Y280591D02*
D03*
Y290591D02*
D03*
Y300590D02*
D03*
Y310591D02*
D03*
Y320590D02*
D03*
Y330591D02*
D03*
D22*
X559882Y309134D02*
D03*
Y261732D02*
D03*
D23*
X551181Y290354D02*
D03*
X541339D02*
D03*
Y280512D02*
D03*
X551181D02*
D03*
D24*
X580709Y341535D02*
D03*
X570709D02*
D03*
X560709D02*
D03*
X580709Y371063D02*
D03*
X570709D02*
D03*
X560709D02*
D03*
X580709Y399606D02*
D03*
X570709D02*
D03*
X560709D02*
D03*
X546339Y446850D02*
D03*
X536339D02*
D03*
X531653Y556024D02*
D03*
X521654D02*
D03*
X511654D02*
D03*
Y566024D02*
D03*
X521654D02*
D03*
X531653D02*
D03*
X458228D02*
D03*
X448228D02*
D03*
X438228D02*
D03*
X428228D02*
D03*
X418228D02*
D03*
Y556024D02*
D03*
X428228D02*
D03*
X438228D02*
D03*
X448228D02*
D03*
X458228D02*
D03*
X408228D02*
D03*
X398228D02*
D03*
X388228D02*
D03*
Y566024D02*
D03*
X398228D02*
D03*
X408228D02*
D03*
X346929Y568898D02*
D03*
X336929D02*
D03*
X326929D02*
D03*
X316929D02*
D03*
X346929Y540354D02*
D03*
X336929D02*
D03*
X326929D02*
D03*
X316929D02*
D03*
X275905Y250905D02*
D03*
X265905D02*
D03*
X255906D02*
D03*
X245905D02*
D03*
X235906D02*
D03*
Y260906D02*
D03*
X245905D02*
D03*
X255906D02*
D03*
X265905D02*
D03*
X275905D02*
D03*
Y290276D02*
D03*
X265905D02*
D03*
X255906D02*
D03*
X245905D02*
D03*
X235906D02*
D03*
Y300276D02*
D03*
X245905D02*
D03*
X255906D02*
D03*
X265905D02*
D03*
X275905D02*
D03*
Y329646D02*
D03*
X265905D02*
D03*
X255906D02*
D03*
X245905D02*
D03*
X235906D02*
D03*
Y339646D02*
D03*
X245905D02*
D03*
X255906D02*
D03*
X265905D02*
D03*
X275905D02*
D03*
Y369016D02*
D03*
X265905D02*
D03*
X255906D02*
D03*
X245905D02*
D03*
X235906D02*
D03*
Y379016D02*
D03*
X245905D02*
D03*
X255906D02*
D03*
X265905D02*
D03*
X275905D02*
D03*
Y408386D02*
D03*
X265905D02*
D03*
X255906D02*
D03*
X245905D02*
D03*
X235906D02*
D03*
Y418386D02*
D03*
X245905D02*
D03*
X255906D02*
D03*
X265905D02*
D03*
X275905D02*
D03*
Y447756D02*
D03*
X265905D02*
D03*
X255906D02*
D03*
X245905D02*
D03*
X235906D02*
D03*
Y457756D02*
D03*
X245905D02*
D03*
X255906D02*
D03*
X265905D02*
D03*
X275905D02*
D03*
Y487126D02*
D03*
X265905D02*
D03*
X255906D02*
D03*
X245905D02*
D03*
X235906D02*
D03*
Y497126D02*
D03*
X245905D02*
D03*
X255906D02*
D03*
X265905D02*
D03*
X275905D02*
D03*
Y526496D02*
D03*
X265905D02*
D03*
X255906D02*
D03*
X245905D02*
D03*
X235906D02*
D03*
Y536496D02*
D03*
X245905D02*
D03*
X255906D02*
D03*
X265905D02*
D03*
X275905D02*
D03*
X478071Y231378D02*
D03*
X468071D02*
D03*
X458071D02*
D03*
X448071D02*
D03*
X438071D02*
D03*
Y221378D02*
D03*
X448071D02*
D03*
X458071D02*
D03*
X468071D02*
D03*
X478071D02*
D03*
X428071D02*
D03*
X418071D02*
D03*
X408071D02*
D03*
X398071D02*
D03*
X388071D02*
D03*
Y231378D02*
D03*
X398071D02*
D03*
X408071D02*
D03*
X418071D02*
D03*
X428071D02*
D03*
X319803Y438543D02*
D03*
Y428543D02*
D03*
Y418543D02*
D03*
Y408543D02*
D03*
Y398543D02*
D03*
X329803D02*
D03*
Y408543D02*
D03*
Y418543D02*
D03*
Y428543D02*
D03*
Y438543D02*
D03*
Y388543D02*
D03*
Y378543D02*
D03*
Y368543D02*
D03*
X319803D02*
D03*
Y378543D02*
D03*
Y388543D02*
D03*
X458228Y313071D02*
D03*
X448228D02*
D03*
X438228D02*
D03*
X428228D02*
D03*
X418228D02*
D03*
Y303071D02*
D03*
X428228D02*
D03*
X438228D02*
D03*
X448228D02*
D03*
X458228D02*
D03*
X408228D02*
D03*
X398228D02*
D03*
X388228D02*
D03*
Y313071D02*
D03*
X398228D02*
D03*
X408228D02*
D03*
D25*
X485394Y524606D02*
D03*
X475394D02*
D03*
X465394D02*
D03*
D26*
X462362Y486221D02*
D03*
X443150D02*
D03*
X505905Y295276D02*
D03*
Y275590D02*
D03*
D27*
X561024Y418307D02*
D03*
Y449803D02*
D03*
X580709Y418307D02*
D03*
Y449803D02*
D03*
D28*
X505905Y254921D02*
D03*
X474409D02*
D03*
D29*
X216535Y216535D02*
D03*
Y570866D02*
D03*
X570866D02*
D03*
Y216535D02*
D03*
D30*
X370079Y458661D02*
D03*
X322835Y448819D02*
D03*
X393701Y472441D02*
D03*
X331693Y452756D02*
D03*
X354331Y472441D02*
D03*
X321850Y460630D02*
D03*
X315945Y469488D02*
D03*
X384842Y482283D02*
D03*
X344488D02*
D03*
X320866Y473622D02*
D03*
X376969Y492126D02*
D03*
X315945Y477362D02*
D03*
X321850Y492126D02*
D03*
X309055Y481299D02*
D03*
X369094Y501968D02*
D03*
X512795Y363189D02*
D03*
X390748Y517717D02*
D03*
X336614Y291339D02*
D03*
X360236Y325787D02*
D03*
X381890Y336614D02*
D03*
X348425Y408465D02*
D03*
X353346Y375000D02*
D03*
X504920Y388779D02*
D03*
X501968Y392717D02*
D03*
X520669Y398622D02*
D03*
X570866Y356299D02*
D03*
X547244Y377953D02*
D03*
X550197Y367126D02*
D03*
X521654Y422244D02*
D03*
X500000Y398622D02*
D03*
X536417Y324803D02*
D03*
X412402Y364173D02*
D03*
X368110Y424213D02*
D03*
X467520Y281496D02*
D03*
X475394Y465551D02*
D03*
X452756Y495079D02*
D03*
X457677Y474409D02*
D03*
X422244Y356299D02*
D03*
X504921Y420276D02*
D03*
X486221Y392717D02*
D03*
X488189Y430118D02*
D03*
X483268Y364173D02*
D03*
X311024Y230315D02*
D03*
Y218504D02*
D03*
X334646Y246063D02*
D03*
X293307Y353346D02*
D03*
X297244Y348425D02*
D03*
X299213Y290354D02*
D03*
X302165Y346457D02*
D03*
X300197Y376969D02*
D03*
X376968Y419290D02*
D03*
M02*
