M48
;Layer_Color=9474304
;FILE_FORMAT=2:5
INCH,LZ
;TYPE=PLATED
T1F00S00C0.01968
T2F00S00C0.02362
T3F00S00C0.02756
T4F00S00C0.03150
T5F00S00C0.03937
T6F00S00C0.04331
T7F00S00C0.09449
T8F00S00C0.12598
%
T01
X0334646Y0246063
X0336614Y0291339
X046752Y0281496
X0299213Y0290354
X0311024Y0230315
Y0218504
X0302165Y0346457
X0297244Y0348425
X0293307Y0353346
X0300197Y0376969
X0353346Y0375
X0348425Y0408465
X036811Y0424213
X0376968Y041929
X0370079Y0458661
X0331693Y0452756
X0322835Y0448819
X032185Y046063
X0360236Y0325787
X038189Y0336614
X0412402Y0364173
X0422244Y0356299
X0483268Y0364173
X0512795Y0363189
X050492Y0388779
X0501968Y0392717
X05Y0398622
X0486221Y0392717
X0488189Y0430118
X0504921Y0420276
X0521654Y0422244
X0520669Y0398622
X0547244Y0377953
X0550197Y0367126
X0570866Y0356299
X0536417Y0324803
X0475394Y0465551
X0457677Y0474409
X0452756Y0495079
X0376969Y0492126
X0369094Y0501968
X0384842Y0482283
X0393701Y0472441
X0354331
X0344488Y0482283
X0320866Y0473622
X0315945Y0477362
Y0469488
X032185Y0492126
X0390748Y0517717
X0309055Y0481299
T02
X0319646Y022059
Y0230591
Y0240591
Y025059
Y0260591
Y027059
Y0280591
Y0290591
Y030059
Y0310591
X0349646
Y030059
Y0290591
Y0280591
Y027059
Y0260591
Y025059
Y0240591
Y0230591
Y022059
Y032059
Y0330591
X0319646
Y032059
T03
X0375984Y0273622
Y0281496
T04
X0475394Y0524606
X0485394
X0465394
T05
X0505905Y027559
Y0295276
X0541339Y0290354
X0551181
Y0280512
X0541339
X0560709Y0341535
X0570709
X0580709
Y0371063
X0570709
X0560709
X0560709Y0399606
X0570709
X0580709
X0546339Y044685
X0536339
X0346929Y0540354
X0336929
X0326929
X0316929
Y0568898
X0326929
X0336929
X0346929
T06
X0478071Y0221378
Y0231378
X0474409Y0254921
X0505905
X0468071Y0231378
X0458071
X0448071
X0438071
Y0221378
X0448071
X0458071
X0468071
X0428071
X0418071
X0408071
X0398071
X0388071
Y0231378
X0398071
X0408071
X0418071
X0428071
X0428228Y0303071
X0418228
X0408228
X0398228
X0388228
X0438228
X0448228
X0458228
X0275905Y0300276
Y0290276
X0265905
X0255906
X0245905
X0235906
Y0300276
X0245905
X0255906
X0265905
Y0260906
Y0250905
X0275905
Y0260906
X0255906
Y0250905
X0245905
X0235906
Y0260906
X0245905
Y0329646
X0255906
X0265905
X0275905
Y0339646
X0265905
X0255906
X0245905
X0235906
Y0329646
Y0369016
X0245905
X0255906
X0265905
X0275905
Y0379016
X0265905
X0255906
X0245905
X0235906
Y0408386
X0245905
X0255906
X0265905
X0275905
Y0418386
X0265905
X0255906
X0245905
X0235906
Y0447756
X0245905
X0255906
X0265905
X0275905
Y0457756
X0265905
X0255906
X0245905
X0235906
X0319803Y0438543
Y0428543
Y0418543
Y0408543
Y0398543
X0329803
Y0408543
Y0418543
Y0428543
Y0438543
Y0388543
Y0378543
Y0368543
X0319803
Y0378543
Y0388543
X0388228Y0313071
X0398228
X0408228
X0418228
X0428228
X0438228
X0448228
X0458228
X0561024Y0418307
X0580709
Y0449803
X0561024
X0531653Y0556024
X0521654
X0511654
Y0566024
X0521654
X0531653
X0458228
X0448228
X0438228
X0428228
X0418228
Y0556024
X0428228
X0438228
X0448228
X0458228
X0408228
X0398228
X0388228
Y0566024
X0398228
X0408228
X044315Y0486221
X0462362
X0275905Y0487126
X0265905
X0255906
X0245905
X0235906
Y0497126
X0245905
X0255906
X0265905
X0275905
Y0526496
X0265905
X0255906
X0245905
X0235906
Y0536496
X0245905
X0255906
X0265905
X0275905
T07
X0559882Y0261732
Y0309134
T08
X0570866Y0216535
X0216535
X0570866Y0570866
X0216535
M30
