%FSLAX25Y25*%
%MOIN*%
G70*
G01*
G75*
G04 Layer_Color=16711935*
%ADD10R,0.04331X0.05512*%
%ADD11R,0.05512X0.04331*%
%ADD12R,0.05906X0.05000*%
%ADD13R,0.03937X0.01575*%
%ADD14R,0.04724X0.01181*%
%ADD15R,0.01181X0.04724*%
%ADD16R,0.04921X0.01181*%
%ADD17C,0.01181*%
%ADD18C,0.05906*%
%ADD19C,0.01969*%
%ADD20C,0.03937*%
%ADD21C,0.04331*%
%ADD22C,0.11811*%
%ADD23C,0.06000*%
%ADD24C,0.06693*%
%ADD25C,0.05906*%
%ADD26C,0.06299*%
%ADD27O,0.06299X0.06535*%
%ADD28O,0.06535X0.06299*%
%ADD29C,0.03937*%
%ADD30C,0.03543*%
%ADD31C,0.00787*%
%ADD32C,0.01000*%
%ADD33R,0.05131X0.06312*%
%ADD34R,0.06312X0.05131*%
%ADD35R,0.06706X0.05800*%
%ADD36R,0.04737X0.02375*%
%ADD37R,0.05524X0.01981*%
%ADD38R,0.01981X0.05524*%
%ADD39R,0.05721X0.01981*%
%ADD40C,0.05131*%
%ADD41C,0.12611*%
%ADD42C,0.06800*%
%ADD43C,0.07493*%
%ADD44C,0.06706*%
%ADD45C,0.07099*%
%ADD46O,0.07099X0.07335*%
%ADD47O,0.07335X0.07099*%
%ADD48C,0.04737*%
%ADD49C,0.04343*%
D40*
X375984Y273622D02*
D03*
Y281496D02*
D03*
X319646Y330591D02*
D03*
Y320590D02*
D03*
Y310591D02*
D03*
Y300590D02*
D03*
Y290591D02*
D03*
Y280591D02*
D03*
Y270590D02*
D03*
Y260591D02*
D03*
Y250590D02*
D03*
Y240591D02*
D03*
Y230591D02*
D03*
Y220590D02*
D03*
X349646D02*
D03*
Y230591D02*
D03*
Y240591D02*
D03*
Y250590D02*
D03*
Y260591D02*
D03*
Y270590D02*
D03*
Y280591D02*
D03*
Y290591D02*
D03*
Y300590D02*
D03*
Y310591D02*
D03*
Y320590D02*
D03*
Y330591D02*
D03*
D41*
X559882Y309134D02*
D03*
Y261732D02*
D03*
D42*
X551181Y290354D02*
D03*
X541339D02*
D03*
Y280512D02*
D03*
X551181D02*
D03*
D43*
X580709Y341535D02*
D03*
X570709D02*
D03*
X560709D02*
D03*
X580709Y371063D02*
D03*
X570709D02*
D03*
X560709D02*
D03*
X580709Y399606D02*
D03*
X570709D02*
D03*
X560709D02*
D03*
X546339Y446850D02*
D03*
X536339D02*
D03*
X531653Y556024D02*
D03*
X521654D02*
D03*
X511654D02*
D03*
Y566024D02*
D03*
X521654D02*
D03*
X531653D02*
D03*
X458228D02*
D03*
X448228D02*
D03*
X438228D02*
D03*
X428228D02*
D03*
X418228D02*
D03*
Y556024D02*
D03*
X428228D02*
D03*
X438228D02*
D03*
X448228D02*
D03*
X458228D02*
D03*
X408228D02*
D03*
X398228D02*
D03*
X388228D02*
D03*
Y566024D02*
D03*
X398228D02*
D03*
X408228D02*
D03*
X346929Y568898D02*
D03*
X336929D02*
D03*
X326929D02*
D03*
X316929D02*
D03*
X346929Y540354D02*
D03*
X336929D02*
D03*
X326929D02*
D03*
X316929D02*
D03*
X275905Y250905D02*
D03*
X265905D02*
D03*
X255906D02*
D03*
X245905D02*
D03*
X235906D02*
D03*
Y260906D02*
D03*
X245905D02*
D03*
X255906D02*
D03*
X265905D02*
D03*
X275905D02*
D03*
Y290276D02*
D03*
X265905D02*
D03*
X255906D02*
D03*
X245905D02*
D03*
X235906D02*
D03*
Y300276D02*
D03*
X245905D02*
D03*
X255906D02*
D03*
X265905D02*
D03*
X275905D02*
D03*
Y329646D02*
D03*
X265905D02*
D03*
X255906D02*
D03*
X245905D02*
D03*
X235906D02*
D03*
Y339646D02*
D03*
X245905D02*
D03*
X255906D02*
D03*
X265905D02*
D03*
X275905D02*
D03*
Y369016D02*
D03*
X265905D02*
D03*
X255906D02*
D03*
X245905D02*
D03*
X235906D02*
D03*
Y379016D02*
D03*
X245905D02*
D03*
X255906D02*
D03*
X265905D02*
D03*
X275905D02*
D03*
Y408386D02*
D03*
X265905D02*
D03*
X255906D02*
D03*
X245905D02*
D03*
X235906D02*
D03*
Y418386D02*
D03*
X245905D02*
D03*
X255906D02*
D03*
X265905D02*
D03*
X275905D02*
D03*
Y447756D02*
D03*
X265905D02*
D03*
X255906D02*
D03*
X245905D02*
D03*
X235906D02*
D03*
Y457756D02*
D03*
X245905D02*
D03*
X255906D02*
D03*
X265905D02*
D03*
X275905D02*
D03*
Y487126D02*
D03*
X265905D02*
D03*
X255906D02*
D03*
X245905D02*
D03*
X235906D02*
D03*
Y497126D02*
D03*
X245905D02*
D03*
X255906D02*
D03*
X265905D02*
D03*
X275905D02*
D03*
Y526496D02*
D03*
X265905D02*
D03*
X255906D02*
D03*
X245905D02*
D03*
X235906D02*
D03*
Y536496D02*
D03*
X245905D02*
D03*
X255906D02*
D03*
X265905D02*
D03*
X275905D02*
D03*
X478071Y231378D02*
D03*
X468071D02*
D03*
X458071D02*
D03*
X448071D02*
D03*
X438071D02*
D03*
Y221378D02*
D03*
X448071D02*
D03*
X458071D02*
D03*
X468071D02*
D03*
X478071D02*
D03*
X428071D02*
D03*
X418071D02*
D03*
X408071D02*
D03*
X398071D02*
D03*
X388071D02*
D03*
Y231378D02*
D03*
X398071D02*
D03*
X408071D02*
D03*
X418071D02*
D03*
X428071D02*
D03*
X319803Y438543D02*
D03*
Y428543D02*
D03*
Y418543D02*
D03*
Y408543D02*
D03*
Y398543D02*
D03*
X329803D02*
D03*
Y408543D02*
D03*
Y418543D02*
D03*
Y428543D02*
D03*
Y438543D02*
D03*
Y388543D02*
D03*
Y378543D02*
D03*
Y368543D02*
D03*
X319803D02*
D03*
Y378543D02*
D03*
Y388543D02*
D03*
X458228Y313071D02*
D03*
X448228D02*
D03*
X438228D02*
D03*
X428228D02*
D03*
X418228D02*
D03*
Y303071D02*
D03*
X428228D02*
D03*
X438228D02*
D03*
X448228D02*
D03*
X458228D02*
D03*
X408228D02*
D03*
X398228D02*
D03*
X388228D02*
D03*
Y313071D02*
D03*
X398228D02*
D03*
X408228D02*
D03*
D44*
X485394Y524606D02*
D03*
X475394D02*
D03*
X465394D02*
D03*
D45*
X462362Y486221D02*
D03*
X443150D02*
D03*
X505905Y295276D02*
D03*
Y275590D02*
D03*
D46*
X561024Y418307D02*
D03*
Y449803D02*
D03*
X580709Y418307D02*
D03*
Y449803D02*
D03*
D47*
X505905Y254921D02*
D03*
X474409D02*
D03*
D48*
X216535Y216535D02*
D03*
Y570866D02*
D03*
X570866D02*
D03*
Y216535D02*
D03*
D49*
X370079Y458661D02*
D03*
X322835Y448819D02*
D03*
X393701Y472441D02*
D03*
X331693Y452756D02*
D03*
X354331Y472441D02*
D03*
X321850Y460630D02*
D03*
X315945Y469488D02*
D03*
X384842Y482283D02*
D03*
X344488D02*
D03*
X320866Y473622D02*
D03*
X376969Y492126D02*
D03*
X315945Y477362D02*
D03*
X321850Y492126D02*
D03*
X309055Y481299D02*
D03*
X369094Y501968D02*
D03*
X512795Y363189D02*
D03*
X390748Y517717D02*
D03*
X336614Y291339D02*
D03*
X360236Y325787D02*
D03*
X381890Y336614D02*
D03*
X348425Y408465D02*
D03*
X353346Y375000D02*
D03*
X504920Y388779D02*
D03*
X501968Y392717D02*
D03*
X520669Y398622D02*
D03*
X570866Y356299D02*
D03*
X547244Y377953D02*
D03*
X550197Y367126D02*
D03*
X521654Y422244D02*
D03*
X500000Y398622D02*
D03*
X536417Y324803D02*
D03*
X412402Y364173D02*
D03*
X368110Y424213D02*
D03*
X467520Y281496D02*
D03*
X475394Y465551D02*
D03*
X452756Y495079D02*
D03*
X457677Y474409D02*
D03*
X422244Y356299D02*
D03*
X504921Y420276D02*
D03*
X486221Y392717D02*
D03*
X488189Y430118D02*
D03*
X483268Y364173D02*
D03*
X311024Y230315D02*
D03*
Y218504D02*
D03*
X334646Y246063D02*
D03*
X293307Y353346D02*
D03*
X297244Y348425D02*
D03*
X299213Y290354D02*
D03*
X302165Y346457D02*
D03*
X300197Y376969D02*
D03*
X376968Y419290D02*
D03*
M02*
